<svg width="96" height="96" viewBox="0 0 96 96" fill="none" xmlns="http://www.w3.org/2000/svg">
<rect width="96" height="96" rx="48" fill="#70B6F6" fill-opacity="0.12"/>
<path fill-rule="evenodd" clip-rule="evenodd" d="M22.333 47.9999C22.333 33.8243 33.824 22.3333 47.9997 22.3333C62.1753 22.3333 73.6663 33.8243 73.6663 47.9999C73.6663 62.1756 62.1753 73.6666 47.9997 73.6666C33.824 73.6666 22.333 62.1756 22.333 47.9999ZM47.9997 26.9999C36.4013 26.9999 26.9997 36.4016 26.9997 47.9999C26.9997 59.5983 36.4013 68.9999 47.9997 68.9999C59.598 68.9999 68.9997 59.5983 68.9997 47.9999C68.9997 36.4016 59.598 26.9999 47.9997 26.9999ZM45.643 38.6666C45.643 37.3779 46.6877 36.3333 47.9763 36.3333H47.9997C49.2883 36.3333 50.333 37.3779 50.333 38.6666C50.333 39.9553 49.2883 40.9999 47.9997 40.9999H47.9763C46.6877 40.9999 45.643 39.9553 45.643 38.6666ZM47.9997 45.6666C49.2883 45.6666 50.333 46.7113 50.333 47.9999V57.3333C50.333 58.6219 49.2883 59.6666 47.9997 59.6666C46.711 59.6666 45.6663 58.6219 45.6663 57.3333V47.9999C45.6663 46.7113 46.711 45.6666 47.9997 45.6666Z" fill="#526ED3"/>
</svg>
